<svg xmlns="http://www.w3.org/2000/svg" id="Layer_1" data-name="Layer 1" viewBox="0 0 807.9 188.3"><defs><style>      .cls-1 {        fill: #0198cd;      }      .cls-1, .cls-2, .cls-3 {        stroke-width: 0px;      }      .cls-2 {        fill: #000;      }      .cls-3 {        fill: #0098cc;      }    </style></defs><g><g id="_Radial_Repeat_" data-name="&amp;lt;Radial Repeat&amp;gt;"><path class="cls-3" d="M106.4,188.3c-22.3-6.3-35.4-29.6-29.1-52l7.5,2.1c-5.1,18.2,5.5,37.2,23.7,42.3l-2.1,7.5Z"></path></g><g id="_Radial_Repeat_-2" data-name="&amp;lt;Radial Repeat&amp;gt;"><path class="cls-3" d="M69.5,185.8c-18.2-14.4-21.3-40.9-7-59.1l6.1,4.8c-5.7,7.2-8.2,16.2-7.1,25.2,1.1,9.1,5.6,17.2,12.8,22.9l-4.8,6.1Z"></path></g><g id="_Radial_Repeat_-3" data-name="&amp;lt;Radial Repeat&amp;gt;"><path class="cls-3" d="M36.3,169.4c-5.5-9.8-6.8-21.2-3.8-32,3.1-10.8,10.1-19.8,20-25.3l3.8,6.8c-8,4.5-13.8,11.8-16.3,20.6-2.5,8.8-1.4,18.1,3.1,26.1l-6.8,3.8Z"></path></g><g id="_Radial_Repeat_-4" data-name="&amp;lt;Radial Repeat&amp;gt;"><path class="cls-3" d="M11.9,141.5c-2.7-23.1,13.8-44,36.9-46.7l.9,7.8c-9.1,1.1-17.2,5.6-22.9,12.8-5.7,7.2-8.2,16.2-7.1,25.2l-7.8.9Z"></path></g><g id="_Radial_Repeat_-5" data-name="&amp;lt;Radial Repeat&amp;gt;"><path class="cls-3" d="M7.5,108.5l-7.5-2.1c3.1-10.8,10.1-19.8,20-25.3,9.8-5.5,21.2-6.8,32-3.8l-2.1,7.5c-8.8-2.5-18.1-1.4-26.1,3.1-8,4.5-13.8,11.8-16.3,20.6Z"></path></g><g id="_Radial_Repeat_-6" data-name="&amp;lt;Radial Repeat&amp;gt;"><path class="cls-3" d="M8.6,74.3l-6.1-4.8c14.4-18.2,40.9-21.3,59.1-7l-4.8,6.1c-14.8-11.7-36.4-9.2-48.1,5.7Z"></path></g><g id="_Radial_Repeat_-7" data-name="&amp;lt;Radial Repeat&amp;gt;"><path class="cls-3" d="M69.3,56.3c-9.2-16.5-30.2-22.4-46.6-13.2l-3.8-6.8c20.3-11.3,46-4.1,57.3,16.2l-6.8,3.8Z"></path></g><g id="_Radial_Repeat_-8" data-name="&amp;lt;Radial Repeat&amp;gt;"><path class="cls-3" d="M85.7,49.7c-2.2-18.8-19.3-32.2-38-30l-.9-7.8c23.1-2.7,44,13.8,46.7,36.9l-7.8.9Z"></path></g><g id="_Radial_Repeat_-9" data-name="&amp;lt;Radial Repeat&amp;gt;"><path class="cls-3" d="M110.9,52l-7.5-2.1c5.1-18.2-5.5-37.2-23.7-42.3l2.1-7.5c22.3,6.3,35.4,29.6,29.1,52Z"></path></g><g id="_Radial_Repeat_-10" data-name="&amp;lt;Radial Repeat&amp;gt;"><path class="cls-3" d="M125.8,61.6l-6.1-4.8c11.7-14.8,9.2-36.4-5.7-48.1l4.8-6.1c18.2,14.4,21.3,40.9,7,59.1Z"></path></g><g id="_Radial_Repeat_-11" data-name="&amp;lt;Radial Repeat&amp;gt;"><path class="cls-3" d="M135.8,76.2l-3.8-6.8c8-4.5,13.8-11.8,16.3-20.6,2.5-8.8,1.4-18.1-3.1-26.1l6.8-3.8c5.5,9.8,6.8,21.2,3.8,32-3.1,10.8-10.1,19.8-20,25.3Z"></path></g><g id="_Radial_Repeat_-12" data-name="&amp;lt;Radial Repeat&amp;gt;"><path class="cls-3" d="M139.5,93.5l-.9-7.8c18.8-2.2,32.2-19.3,30-38l7.8-.9c1.3,11.2-1.8,22.2-8.8,31-7,8.8-17,14.4-28.1,15.7Z"></path></g><g id="_Radial_Repeat_-13" data-name="&amp;lt;Radial Repeat&amp;gt;"><path class="cls-3" d="M147.7,112.5c-3.8,0-7.6-.5-11.4-1.6l2.1-7.5c18.2,5.1,37.2-5.5,42.3-23.7l7.5,2.1c-5.2,18.5-22.2,30.6-40.5,30.6Z"></path></g><g id="_Radial_Repeat_-14" data-name="&amp;lt;Radial Repeat&amp;gt;"><path class="cls-3" d="M152.7,134.8c-9.1,0-18.3-3-26-9l4.8-6.1c7.2,5.7,16.2,8.2,25.2,7.1,9.1-1.1,17.2-5.6,22.9-12.8l6.1,4.8c-8.3,10.5-20.6,16-33.1,16Z"></path></g><g id="_Radial_Repeat_-15" data-name="&amp;lt;Radial Repeat&amp;gt;"><path class="cls-3" d="M148.9,157.4c-3.8,0-7.7-.5-11.5-1.6-10.8-3.1-19.8-10.1-25.3-20l6.8-3.8c4.5,8,11.8,13.8,20.6,16.3,8.8,2.5,18.1,1.4,26.1-3.1l3.8,6.8c-6.4,3.6-13.4,5.4-20.5,5.4Z"></path></g><g id="_Radial_Repeat_-16" data-name="&amp;lt;Radial Repeat&amp;gt;"><path class="cls-3" d="M136.5,176.7c-9.4,0-18.5-3.1-26-9.1-8.8-7-14.4-17-15.7-28.1l7.8-.9c2.2,18.8,19.3,32.2,38,30l.9,7.8c-1.7.2-3.3.3-5,.3Z"></path></g></g><g><g><path class="cls-2" d="M276.7,114.9c3.4,5.4,5.2,12.4,5.2,20.4,0,19-10,32.3-28.5,32.3s-14.3-2.4-19-6.7l-5.9,6.5-4.6-4.1,6.5-7.1c-3.6-5.5-5.5-12.7-5.5-20.9,0-19,10-32.3,28.6-32.3s14.7,2.6,19.4,7.1l6.2-6.8,4.6,4-6.8,7.5ZM235.1,151.2l33.4-36.3c-3.5-3.7-8.6-5.9-15.1-5.9-14.6,0-21.8,10.7-21.9,26.2,0,6.2,1.1,11.7,3.5,15.9ZM275.2,135.3c0-5.9-1-11.2-3.2-15.4l-33.3,36.3c3.6,3.4,8.5,5.3,14.7,5.3,14.6,0,21.8-10.7,21.8-26.2Z"></path><path class="cls-2" d="M328.5,119.8l-25.1,67.2h-6.3l7.7-20.7-18.9-46.5h6.6l15.2,38.2,14.1-38.2h6.5Z"></path><path class="cls-2" d="M353.6,161.5c6.6,0,11.7-3.2,14.6-9l5.9,2.2c-3.7,8.1-11.3,12.7-20.3,12.7-13.5,0-22.2-9.6-22.2-24.4s8.6-24.7,22-24.7,21.8,9.9,21.4,26.4h-36.6c.5,10.6,5.9,16.7,15.2,16.7ZM338.5,139.5h29.9c-1-10-5.9-15.2-14.6-15.2s-14.3,5.5-15.3,15.2Z"></path><path class="cls-2" d="M385.4,103h6.3v63.3h-6.3v-63.3Z"></path><path class="cls-2" d="M424.1,161.5c6.6,0,11.7-3.2,14.6-9l5.9,2.2c-3.7,8.1-11.3,12.7-20.3,12.7-13.5,0-22.2-9.6-22.2-24.4s8.6-24.7,22-24.7,21.8,9.9,21.4,26.4h-36.6c.5,10.6,5.9,16.7,15.2,16.7ZM408.9,139.5h29.9c-1-10-5.9-15.2-14.6-15.2s-14.3,5.5-15.3,15.2Z"></path><path class="cls-2" d="M493.9,119.8v45.8c0,2.7,0,5.1-.5,7.5-1.6,10.3-8.5,15.2-20,15.2s-14.3-3-18.3-10.2l5.8-3.2c2.6,5.2,7.7,7.2,12.7,7.2,10.1,0,14.1-5.6,14-16.4v-4.8c-3.4,4.2-8.2,6.8-14.5,6.8-13.1,0-20.7-10.7-20.7-24.6s7.6-24.5,20.4-24.5,12.1,2.8,15.4,7.6v-6.3h5.7ZM488.2,142.9c0-10.9-4.7-18.6-14.4-18.6s-14.7,8.1-14.7,18.6,4.8,18.8,14.6,18.8,14.6-7.9,14.6-18.8Z"></path><path class="cls-2" d="M525.4,161.5c6.6,0,11.7-3.2,14.6-9l5.9,2.2c-3.7,8.1-11.3,12.7-20.3,12.7-13.5,0-22.2-9.6-22.2-24.4s8.6-24.7,22-24.7,21.8,9.9,21.4,26.4h-36.6c.5,10.6,5.9,16.7,15.2,16.7ZM510.3,139.5h29.9c-1-10-5.9-15.2-14.6-15.2s-14.3,5.5-15.3,15.2Z"></path><path class="cls-2" d="M553.8,154.1l6.5-1c1.4,5.3,6.6,8.6,13.9,8.6s11.4-3.1,11.4-8.3-2-5.6-13.8-8.8c-12.7-3.4-16.4-6.4-16.4-12.9s7.1-13.3,17.7-13.3,18.2,5.4,19,13.5l-6.5,1.2c-.9-5.4-5.7-8.9-12.7-9-6.6-.2-11.2,2.8-11.2,7.1s2.7,5.4,13.6,8.2c12.8,3.3,16.8,6.6,16.8,13.8s-6.9,14.1-18.3,14.1-18.3-4.9-20-13.3Z"></path><path class="cls-2" d="M621,161.5c6.6,0,11.7-3.2,14.6-9l5.9,2.2c-3.7,8.1-11.3,12.7-20.3,12.7-13.5,0-22.2-9.6-22.2-24.4s8.6-24.7,22-24.7,21.8,9.9,21.4,26.4h-36.6c.5,10.6,5.9,16.7,15.2,16.7ZM605.9,139.5h29.9c-1-10-5.9-15.2-14.6-15.2s-14.3,5.5-15.3,15.2Z"></path><path class="cls-2" d="M690.6,140.7v25.6h-6.4v-23.8c0-10.2-3.7-17.8-13.5-17.8s-13.7,6.3-13.7,16.8v24.8h-6.4v-46.5h5.7v6.5c3.4-5,9-7.6,15.7-7.6,13.9,0,18.6,11.5,18.6,22Z"></path><path class="cls-2" d="M712.9,149.2c0,3.9-.2,6.3.9,8.4,2.1,3.8,6.6,4.2,13.3,3.2v5.5c-7.8,1.6-16,.6-19-5.5-1.7-3.4-1.6-6.8-1.6-11.4v-24.2h-9.9v-5.4h9.9v-12.9h6.4v12.9h14.2v5.4h-14.2v24Z"></path><path class="cls-2" d="M754.1,161.5c6.6,0,11.7-3.2,14.6-9l5.9,2.2c-3.7,8.1-11.3,12.7-20.3,12.7-13.5,0-22.2-9.6-22.2-24.4s8.6-24.7,22-24.7,21.8,9.9,21.4,26.4h-36.6c.5,10.6,5.9,16.7,15.2,16.7ZM738.9,139.5h29.9c-1-10-5.9-15.2-14.6-15.2s-14.3,5.5-15.3,15.2Z"></path><path class="cls-2" d="M807.9,119.8v5.9c-3.4-.9-7.8-.6-11.2,2.1-4.7,3.7-5.3,9.7-5.3,15.3v23.2h-6.4v-46.5h5.7v7.3c.9-1.7,2.2-3.2,3.6-4.3,3.6-3.1,9.5-4,13.6-3Z"></path></g><g><path class="cls-2" d="M264.5,74l-10.9-22.3h-16.4v22.3h-9V12h25.1c1.2,0,3.2,0,4.7.3,10.4,1.6,15.6,9.5,15.6,19.5s-3.5,15.1-10.6,18.1l11.7,24h-10.2ZM237.3,43.3h15.7c1.1,0,2.7,0,3.9-.4,5.6-1.3,7.7-6.4,7.7-10.9s-2.1-9.6-7.7-11c-1.2-.3-2.8-.3-3.9-.3h-15.7v22.7Z"></path><path class="cls-2" d="M322,45.4v28.7h-7.9v-6.8c-3.8,5.4-9.2,8.1-16.8,8.1s-15.7-6.4-15.7-14,3.8-11.5,11-13.8c5.3-1.5,13-2.6,20.6-3.7-.3-6.3-3.4-9.3-10.5-9.3s-9.4,2.1-11,7.3l-8.4-2.6c2.2-8,8.7-13.1,19.4-13.1s14.8,2.8,17.7,8.9c1.5,3.1,1.6,6.5,1.6,10.2ZM312.2,58.8c.8-2.2.9-5.2.9-7.3-7,1-12.2,1.7-16.1,2.9-3.7,1.3-6.5,3.2-6.5,6.9s2.7,6.7,8.4,6.7,12.1-4.7,13.3-9.2Z"></path><path class="cls-2" d="M375,48.2v25.8h-9.1v-22.8c0-7.2-1.9-16.4-11.7-16.4s-11.9,4-11.9,15.1v24.2h-9.1V27.5h8.1v5.6c3.4-4.3,8.6-6.9,15.3-6.9,16.1,0,18.4,14.8,18.4,22Z"></path><path class="cls-2" d="M424,45.4v28.7h-7.9v-6.8c-3.8,5.4-9.2,8.1-16.8,8.1s-15.7-6.4-15.7-14,3.8-11.5,11-13.8c5.3-1.5,13-2.6,20.6-3.7-.3-6.3-3.4-9.3-10.5-9.3s-9.4,2.1-11,7.3l-8.4-2.6c2.2-8,8.7-13.1,19.4-13.1s14.8,2.8,17.7,8.9c1.5,3.1,1.6,6.5,1.6,10.2ZM414.2,58.8c.8-2.2.9-5.2.9-7.3-7,1-12.2,1.7-16.1,2.9-3.7,1.3-6.5,3.2-6.5,6.9s2.7,6.7,8.4,6.7,12.1-4.7,13.3-9.2Z"></path></g><rect class="cls-1" x="455.5" y="49.1" width="352.5" height="5.7"></rect></g></svg>